<svg xmlns="http://www.w3.org/2000/svg" width="28.513" height="23.158" viewBox="0 0 28.513 23.158"><path d="M25.582,53.853c.018.253.018.507.018.76,0,7.725-5.88,16.627-16.627,16.627A16.514,16.514,0,0,1,0,68.616a12.088,12.088,0,0,0,1.411.072,11.7,11.7,0,0,0,7.255-2.5A5.854,5.854,0,0,1,3.2,62.139a7.371,7.371,0,0,0,1.1.09,6.18,6.18,0,0,0,1.538-.2A5.844,5.844,0,0,1,1.158,56.3v-.072a5.885,5.885,0,0,0,2.641.742A5.852,5.852,0,0,1,1.99,49.149a16.611,16.611,0,0,0,12.049,6.115,6.6,6.6,0,0,1-.145-1.339,5.849,5.849,0,0,1,10.113-4,11.505,11.505,0,0,0,3.709-1.411,5.828,5.828,0,0,1-2.569,3.22,11.715,11.715,0,0,0,3.365-.9A12.562,12.562,0,0,1,25.582,53.853Z" transform="translate(0 -48.082)" fill="#fff"/></svg>